<?xml version="1.0" encoding="utf-8"?>
<!-- Generator: Adobe Illustrator 23.0.5, SVG Export Plug-In . SVG Version: 6.00 Build 0)  -->
<svg version="1.1" id="Слой_1" xmlns="http://www.w3.org/2000/svg" xmlns:xlink="http://www.w3.org/1999/xlink" x="0px" y="0px"
	 viewBox="0 0 76.1 54.9" style="enable-background:new 0 0 76.1 54.9;" xml:space="preserve">
<style type="text/css">
	.st0{fill:url(#XMLID_2_);}
	.st1{fill:url(#SVGID_1_);stroke:url(#SVGID_2_);stroke-width:6;stroke-linecap:round;stroke-miterlimit:10;}
	.st2{fill:none;stroke:url(#SVGID_3_);stroke-width:6;stroke-linecap:round;stroke-miterlimit:10;}
	.st3{fill:url(#XMLID_3_);}
	.st4{fill:none;stroke:#666666;stroke-width:5;stroke-linecap:round;stroke-miterlimit:10;}
</style>
<g>
	
		<linearGradient id="XMLID_2_" gradientUnits="userSpaceOnUse" x1="21.61" y1="6.23" x2="32.47" y2="6.23" gradientTransform="matrix(1 0 0 -1 0 56)">
		<stop  offset="0" style="stop-color:#001B86"/>
		<stop  offset="1" style="stop-color:#149FFF"/>
	</linearGradient>
	<ellipse id="XMLID_10_" class="st0" cx="27" cy="49.8" rx="5.4" ry="5.2"/>
	
		<linearGradient id="SVGID_1_" gradientUnits="userSpaceOnUse" x1="2.9952" y1="32.8258" x2="59.95" y2="32.8258" gradientTransform="matrix(1 0 0 -1 0 56)">
		<stop  offset="0" style="stop-color:#001B86"/>
		<stop  offset="1" style="stop-color:#149FFF"/>
	</linearGradient>
	
		<linearGradient id="SVGID_2_" gradientUnits="userSpaceOnUse" x1="-4.822123e-03" y1="32.8258" x2="62.95" y2="32.8258" gradientTransform="matrix(1 0 0 -1 0 56)">
		<stop  offset="0" style="stop-color:#001B86"/>
		<stop  offset="1" style="stop-color:#149FFF"/>
	</linearGradient>
	<path class="st1" d="M60,39.2l-37.6,0.4c-0.2,0-0.3-0.1-0.4-0.2L3,12.8c-0.1-0.2,0-0.4,0.1-0.5l3.3-5.5C6.7,6.6,7,6.7,7.1,7
		L22,39.2"/>
	
		<linearGradient id="SVGID_3_" gradientUnits="userSpaceOnUse" x1="14.7395" y1="29.095" x2="76.141" y2="29.095" gradientTransform="matrix(1 0 0 -1 0 56)">
		<stop  offset="0" style="stop-color:#001B86"/>
		<stop  offset="1" style="stop-color:#149FFF"/>
	</linearGradient>
	<path class="st2" d="M55.9,50.8L73.1,3.5C73.2,3.3,73,3,72.7,3L18.2,3.4c-0.3,0-0.5,0.3-0.4,0.6l11,25.2c0.1,0.2,0.2,0.3,0.4,0.3
		l23-0.4c0.2,0,0.3-0.1,0.4-0.3l5.4-15.6"/>
	
		<linearGradient id="XMLID_3_" gradientUnits="userSpaceOnUse" x1="50.72" y1="6.23" x2="61.58" y2="6.23" gradientTransform="matrix(1 0 0 -1 0 56)">
		<stop  offset="0" style="stop-color:#001B86"/>
		<stop  offset="1" style="stop-color:#149FFF"/>
	</linearGradient>
	<ellipse id="XMLID_9_" class="st3" cx="56.2" cy="49.8" rx="5.4" ry="5.2"/>
</g>
<line class="st4" x1="434.5" y1="-10.1" x2="449.5" y2="11.9"/>
<line class="st4" x1="464.5" y1="-10.1" x2="449.5" y2="11.9"/>
</svg>
