<?xml version="1.0" encoding="utf-8"?>
<!-- Generator: Adobe Illustrator 23.0.5, SVG Export Plug-In . SVG Version: 6.00 Build 0)  -->
<svg version="1.1" id="Слой_1" xmlns="http://www.w3.org/2000/svg" xmlns:xlink="http://www.w3.org/1999/xlink" x="0px" y="0px"
	 viewBox="0 0 1311 546.3" style="enable-background:new 0 0 1311 546.3;" xml:space="preserve">
<style type="text/css">
	.st0{fill:url(#SVGID_1_);}
	.st1{fill:url(#SVGID_2_);}
	.st2{fill:url(#SVGID_3_);}
	.st3{fill:url(#SVGID_4_);}
	.st4{fill:url(#SVGID_5_);}
	.st5{fill:url(#SVGID_6_);}
	.st6{fill:url(#SVGID_7_);}
	.st7{fill:url(#SVGID_8_);}
	.st8{fill:url(#SVGID_9_);}
	.st9{fill:url(#SVGID_10_);}
	.st10{fill:url(#SVGID_11_);}
	.st11{fill:url(#SVGID_12_);}
	.st12{fill:url(#SVGID_13_);}
	.st13{fill:url(#SVGID_14_);}
	.st14{fill:url(#SVGID_15_);}
	.st15{fill:url(#SVGID_16_);}
	.st16{fill:url(#SVGID_17_);}
	.st17{fill:url(#SVGID_18_);}
	.st18{fill:url(#SVGID_19_);}
	.st19{fill:url(#SVGID_20_);}
	.st20{fill:url(#SVGID_21_);}
	.st21{fill:url(#SVGID_22_);}
	.st22{fill:url(#SVGID_23_);}
	.st23{fill:url(#SVGID_24_);}
	.st24{fill:url(#SVGID_25_);}
	.st25{fill:url(#SVGID_26_);}
	.st26{fill:url(#SVGID_27_);}
	.st27{fill:url(#SVGID_28_);}
	.st28{fill:url(#SVGID_29_);}
	.st29{fill:none;}
	.st30{enable-background:new    ;}
	.st31{fill:#4D4D4D;}
</style>
<g>
	
		<linearGradient id="SVGID_1_" gradientUnits="userSpaceOnUse" x1="114.3" y1="583.95" x2="217.3" y2="583.95" gradientTransform="matrix(1 0 0 1 0 -532)">
		<stop  offset="0" style="stop-color:#00085D"/>
		<stop  offset="0.9958" style="stop-color:#005CAB"/>
		<stop  offset="1" style="stop-color:#005CAB"/>
		<stop  offset="1" style="stop-color:#056BFF"/>
		<stop  offset="1" style="stop-color:#0D4CFF"/>
	</linearGradient>
	<polygon class="st0" points="150.9,18.6 114.3,85.3 217.3,84.7 	"/>
	
		<linearGradient id="SVGID_2_" gradientUnits="userSpaceOnUse" x1="0.5" y1="823.9" x2="77.9" y2="823.9" gradientTransform="matrix(1 0 0 1 0 -532)">
		<stop  offset="0" style="stop-color:#00085D"/>
		<stop  offset="0.9958" style="stop-color:#005CAB"/>
		<stop  offset="1" style="stop-color:#005CAB"/>
		<stop  offset="1" style="stop-color:#056BFF"/>
		<stop  offset="1" style="stop-color:#0D4CFF"/>
	</linearGradient>
	<polygon class="st1" points="34.5,248.7 77.9,335.1 0.5,319.3 	"/>
	
		<linearGradient id="SVGID_3_" gradientUnits="userSpaceOnUse" x1="206.6" y1="608.05" x2="287.9" y2="608.05" gradientTransform="matrix(1 0 0 1 0 -532)">
		<stop  offset="0" style="stop-color:#00085D"/>
		<stop  offset="0.9958" style="stop-color:#005CAB"/>
		<stop  offset="1" style="stop-color:#005CAB"/>
		<stop  offset="1" style="stop-color:#056BFF"/>
		<stop  offset="1" style="stop-color:#0D4CFF"/>
	</linearGradient>
	<polygon class="st2" points="287.9,0 287.4,152.1 206.6,75.4 	"/>
	
		<linearGradient id="SVGID_4_" gradientUnits="userSpaceOnUse" x1="150.9" y1="620.35" x2="287.9" y2="620.35" gradientTransform="matrix(1 0 0 1 0 -532)">
		<stop  offset="0" style="stop-color:#39B9FF"/>
		<stop  offset="1" style="stop-color:#003BE4"/>
	</linearGradient>
	<polygon class="st3" points="150.9,18.6 287.9,76 287.9,158.1 	"/>
	
		<linearGradient id="SVGID_5_" gradientUnits="userSpaceOnUse" x1="80.4073" y1="840.8989" x2="219.3667" y2="977.4258" gradientTransform="matrix(1 0 0 1 0 -532)">
		<stop  offset="0" style="stop-color:#39B9FF"/>
		<stop  offset="1" style="stop-color:#003BE4"/>
	</linearGradient>
	<polygon class="st4" points="0.5,318.7 227.9,365.5 166,441 	"/>
	
		<linearGradient id="SVGID_6_" gradientUnits="userSpaceOnUse" x1="166" y1="898.5" x2="288" y2="898.5" gradientTransform="matrix(1 0 0 1 0 -532)">
		<stop  offset="0" style="stop-color:#000A75"/>
		<stop  offset="0.226" style="stop-color:#022AA2"/>
		<stop  offset="0.4617" style="stop-color:#0346CA"/>
		<stop  offset="0.6774" style="stop-color:#045AE7"/>
		<stop  offset="0.8639" style="stop-color:#0567F9"/>
		<stop  offset="1" style="stop-color:#056BFF"/>
		<stop  offset="1" style="stop-color:#5ACEFF"/>
	</linearGradient>
	<polygon class="st5" points="166,441 288,292 288,441 	"/>
	
		<linearGradient id="SVGID_7_" gradientUnits="userSpaceOnUse" x1="0" y1="700.75" x2="150.9" y2="700.75" gradientTransform="matrix(1 0 0 1 0 -532)">
		<stop  offset="0" style="stop-color:#39B9FF"/>
		<stop  offset="1" style="stop-color:#003BE4"/>
	</linearGradient>
	<polygon class="st6" points="0,133.2 0.5,318.9 150.9,18.6 	"/>
</g>
<g>
	
		<linearGradient id="SVGID_8_" gradientUnits="userSpaceOnUse" x1="319.7435" y1="930.2116" x2="378.8535" y2="988.2868" gradientTransform="matrix(1 0 0 1 0 -532)">
		<stop  offset="0" style="stop-color:#00085D"/>
		<stop  offset="0.9958" style="stop-color:#005CAB"/>
		<stop  offset="1" style="stop-color:#005CAB"/>
		<stop  offset="1" style="stop-color:#056BFF"/>
		<stop  offset="1" style="stop-color:#0D4CFF"/>
	</linearGradient>
	<path class="st7" d="M350.9,366.5l24.6,93.2l-63.5-8.1c-2.9-0.3-5-3.6-3.2-5.9L350.9,366.5z"/>
	
		<linearGradient id="SVGID_9_" gradientUnits="userSpaceOnUse" x1="346.3322" y1="799.967" x2="416.8302" y2="869.2309" gradientTransform="matrix(1 0 0 1 0 -532)">
		<stop  offset="0" style="stop-color:#39B9FF"/>
		<stop  offset="1" style="stop-color:#003BE4"/>
	</linearGradient>
	<path class="st8" d="M307,308c0,0,1.9,138.3,1,140l150.4-285.8c0.9-1.9-1.4-3.6-2.9-2.2L307,308z"/>
	
		<linearGradient id="SVGID_10_" gradientUnits="userSpaceOnUse" x1="339.9482" y1="955.5445" x2="454.1288" y2="1067.7264" gradientTransform="matrix(1 0 0 1 0 -532)">
		<stop  offset="0" style="stop-color:#39B9FF"/>
		<stop  offset="1" style="stop-color:#003BE4"/>
	</linearGradient>
	<path class="st9" d="M436,462l16.3,74.6c0.3,1.3-1.1,2.3-2.3,1.6L312,452C311.2,451.5,436,462,436,462z"/>
	
		<linearGradient id="SVGID_11_" gradientUnits="userSpaceOnUse" x1="453.2544" y1="915.1306" x2="529.5871" y2="990.1271" gradientTransform="matrix(1 0 0 1 0 -532)">
		<stop  offset="0" style="stop-color:#39B9FF"/>
		<stop  offset="1" style="stop-color:#003BE4"/>
	</linearGradient>
	<path class="st10" d="M436,462l15.2,73c0.2,0.9,0.5,2.9,0.8,2l79-233C531,303.9,436,462,436,462z"/>
	
		<linearGradient id="SVGID_12_" gradientUnits="userSpaceOnUse" x1="433.2781" y1="718.9675" x2="541.5091" y2="825.304" gradientTransform="matrix(1 0 0 1 0 -532)">
		<stop  offset="0" style="stop-color:#001F78"/>
		<stop  offset="0" style="stop-color:#00247D"/>
		<stop  offset="1" style="stop-color:#005CAB"/>
		<stop  offset="1" style="stop-color:#056BFF"/>
		<stop  offset="1" style="stop-color:#0083F5"/>
	</linearGradient>
	<path class="st11" d="M531,304c0.2,0.1-72-142-72-142c-0.5-1-1.7,0.4-2.3,1.4l-35.2,62.3L531,304z"/>
</g>
<g>
	
		<linearGradient id="SVGID_13_" gradientUnits="userSpaceOnUse" x1="558.773" y1="915.697" x2="602.6338" y2="958.7902" gradientTransform="matrix(1 0 0 1 0 -532)">
		<stop  offset="0" style="stop-color:#00085D"/>
		<stop  offset="0.9958" style="stop-color:#005CAB"/>
		<stop  offset="1" style="stop-color:#005CAB"/>
		<stop  offset="1" style="stop-color:#056BFF"/>
		<stop  offset="1" style="stop-color:#0D4CFF"/>
	</linearGradient>
	<polygon class="st12" points="602,339.7 654.5,374 511.5,441 	"/>
	
		<linearGradient id="SVGID_14_" gradientUnits="userSpaceOnUse" x1="511.5" y1="828.35" x2="651.5" y2="828.35" gradientTransform="matrix(1 0 0 1 0 -532)">
		<stop  offset="0" style="stop-color:#001F78"/>
		<stop  offset="0" style="stop-color:#00247D"/>
		<stop  offset="1" style="stop-color:#005CAB"/>
		<stop  offset="1" style="stop-color:#056BFF"/>
		<stop  offset="1" style="stop-color:#0083F5"/>
	</linearGradient>
	<polygon class="st13" points="511.5,441 651.5,301 579,151.7 	"/>
	
		<linearGradient id="SVGID_15_" gradientUnits="userSpaceOnUse" x1="509.0251" y1="550.519" x2="722.7389" y2="760.4919" gradientTransform="matrix(1 0 0 1 0 -532)">
		<stop  offset="0" style="stop-color:#39B9FF"/>
		<stop  offset="1" style="stop-color:#003BE4"/>
	</linearGradient>
	<polygon class="st14" points="511.5,16 651.5,16 651.5,301 578.5,152.3 	"/>
	
		<linearGradient id="SVGID_16_" gradientUnits="userSpaceOnUse" x1="619.9728" y1="862.5947" x2="766.5154" y2="1006.5722" gradientTransform="matrix(1 0 0 1 0 -532)">
		<stop  offset="0" style="stop-color:#39B9FF"/>
		<stop  offset="1" style="stop-color:#003BE4"/>
	</linearGradient>
	<polygon class="st15" points="799.5,441 799.5,290 511.5,441 	"/>
</g>
<g>
	
		<linearGradient id="SVGID_17_" gradientUnits="userSpaceOnUse" x1="946.2781" y1="713.9675" x2="1054.5092" y2="820.304" gradientTransform="matrix(1 0 0 1 0 -532)">
		<stop  offset="0" style="stop-color:#001F78"/>
		<stop  offset="0" style="stop-color:#00247D"/>
		<stop  offset="1" style="stop-color:#005CAB"/>
		<stop  offset="1" style="stop-color:#056BFF"/>
		<stop  offset="1" style="stop-color:#0083F5"/>
	</linearGradient>
	<path class="st16" d="M1044,299c0.2,0.1-72-142-72-142c-0.5-1-1.7,0.4-2.3,1.4l-35.2,62.3L1044,299z"/>
	
		<linearGradient id="SVGID_18_" gradientUnits="userSpaceOnUse" x1="832.7435" y1="925.2116" x2="892.8533" y2="984.2692" gradientTransform="matrix(1 0 0 1 0 -532)">
		<stop  offset="0" style="stop-color:#00085D"/>
		<stop  offset="0.9958" style="stop-color:#005CAB"/>
		<stop  offset="1" style="stop-color:#005CAB"/>
		<stop  offset="1" style="stop-color:#056BFF"/>
		<stop  offset="1" style="stop-color:#0D4CFF"/>
	</linearGradient>
	<path class="st17" d="M863.9,361.5l24.6,95.2L825,446.6c-2.9-0.3-5-3.6-3.2-5.9L863.9,361.5z"/>
	
		<linearGradient id="SVGID_19_" gradientUnits="userSpaceOnUse" x1="859.3323" y1="794.967" x2="929.8301" y2="864.2309" gradientTransform="matrix(1 0 0 1 0 -532)">
		<stop  offset="0" style="stop-color:#39B9FF"/>
		<stop  offset="1" style="stop-color:#003BE4"/>
	</linearGradient>
	<path class="st18" d="M820,303c0,0,1.9,138.3,1,140l150.4-285.8c0.9-1.9-1.4-3.6-2.9-2.2L820,303z"/>
	
		<linearGradient id="SVGID_20_" gradientUnits="userSpaceOnUse" x1="852.9482" y1="950.5445" x2="967.1135" y2="1062.7114" gradientTransform="matrix(1 0 0 1 0 -532)">
		<stop  offset="0" style="stop-color:#39B9FF"/>
		<stop  offset="1" style="stop-color:#003BE4"/>
	</linearGradient>
	<path class="st19" d="M949,457l16.3,74.6c0.3,1.3-1.2,2.3-2.3,1.6L825,447C824.2,446.5,949,457,949,457z"/>
	
		<linearGradient id="SVGID_21_" gradientUnits="userSpaceOnUse" x1="966.2545" y1="910.1306" x2="1042.5872" y2="985.1271" gradientTransform="matrix(1 0 0 1 0 -532)">
		<stop  offset="0" style="stop-color:#39B9FF"/>
		<stop  offset="1" style="stop-color:#003BE4"/>
	</linearGradient>
	<path class="st20" d="M949,457l15.2,73c0.2,0.9,0.5,2.9,0.8,2l79-233C1044,298.9,949,457,949,457z"/>
</g>
<g>
	
		<linearGradient id="SVGID_22_" gradientUnits="userSpaceOnUse" x1="1009.6873" y1="738.278" x2="1183.1603" y2="908.7145" gradientTransform="matrix(1 0 0 1 0 -532)">
		<stop  offset="0" style="stop-color:#39B9FF"/>
		<stop  offset="1" style="stop-color:#003BE4"/>
	</linearGradient>
	<polygon class="st21" points="1120,94 1120,441 1024,441 	"/>
	
		<linearGradient id="SVGID_23_" gradientUnits="userSpaceOnUse" x1="965.3271" y1="603.5934" x2="1128.6694" y2="764.0767" gradientTransform="matrix(1 0 0 1 0 -532)">
		<stop  offset="0" style="stop-color:#001F78"/>
		<stop  offset="0" style="stop-color:#00247D"/>
		<stop  offset="1" style="stop-color:#005CAB"/>
		<stop  offset="1" style="stop-color:#056BFF"/>
		<stop  offset="1" style="stop-color:#0083F5"/>
	</linearGradient>
	<polygon class="st22" points="1017,19 1063.9,298 1120,94 	"/>
	
		<linearGradient id="SVGID_24_" gradientUnits="userSpaceOnUse" x1="1065.3016" y1="501.8378" x2="1183.6984" y2="618.1622" gradientTransform="matrix(1 0 0 1 0 -532)">
		<stop  offset="0" style="stop-color:#39B9FF"/>
		<stop  offset="1" style="stop-color:#003BE4"/>
	</linearGradient>
	<polygon class="st23" points="1017,19 1232,37 1120,94 	"/>
	
		<linearGradient id="SVGID_25_" gradientUnits="userSpaceOnUse" x1="1217.249" y1="584.0139" x2="1308.7693" y2="673.9319" gradientTransform="matrix(1 0 0 1 0 -532)">
		<stop  offset="0" style="stop-color:#39B9FF"/>
		<stop  offset="1" style="stop-color:#003BE4"/>
	</linearGradient>
	<polygon class="st24" points="1292,159 1232,37 1287,87 	"/>
	
		<linearGradient id="SVGID_26_" gradientUnits="userSpaceOnUse" x1="1178.588" y1="696.7679" x2="1233.412" y2="750.6321" gradientTransform="matrix(1 0 0 1 0 -532)">
		<stop  offset="0" style="stop-color:#39B9FF"/>
		<stop  offset="1" style="stop-color:#003BE4"/>
	</linearGradient>
	<polygon class="st25" points="1120,224.4 1292,159 1175,270 	"/>
	
		<linearGradient id="SVGID_27_" gradientUnits="userSpaceOnUse" x1="1101.405" y1="774.9263" x2="1307.0745" y2="976.9955" gradientTransform="matrix(1 0 0 1 0 -532)">
		<stop  offset="0" style="stop-color:#39B9FF"/>
		<stop  offset="1" style="stop-color:#003BE4"/>
	</linearGradient>
	<polygon class="st26" points="1237,441 1120,224 1311,384 1311,441 	"/>
	
		<linearGradient id="SVGID_28_" gradientUnits="userSpaceOnUse" x1="1207.2249" y1="574.1128" x2="1249.4573" y2="615.6059" gradientTransform="matrix(1 0 0 1 0 -532)">
		<stop  offset="0" style="stop-color:#001F78"/>
		<stop  offset="0" style="stop-color:#00247D"/>
		<stop  offset="1" style="stop-color:#005CAB"/>
		<stop  offset="1" style="stop-color:#056BFF"/>
		<stop  offset="1" style="stop-color:#0083F5"/>
	</linearGradient>
	<polygon class="st27" points="1192.5,57.1 1253,80 1232,37 	"/>
	
		<linearGradient id="SVGID_29_" gradientUnits="userSpaceOnUse" x1="1260.5128" y1="675.772" x2="1284.1472" y2="698.9927" gradientTransform="matrix(1 0 0 1 0 -532)">
		<stop  offset="0" style="stop-color:#001F78"/>
		<stop  offset="0" style="stop-color:#00247D"/>
		<stop  offset="1" style="stop-color:#005CAB"/>
		<stop  offset="1" style="stop-color:#056BFF"/>
		<stop  offset="1" style="stop-color:#0083F5"/>
	</linearGradient>
	<polygon class="st28" points="1276.5,127.5 1257,172.3 1292,159 	"/>
</g>
<rect x="490.6" y="453.4" class="st29" width="329.8" height="92.9"/>
<g class="st30">
	<path class="st31" d="M527.3,502.3c4.9,4,10.6,6.1,16.9,6.1c3.6,0,6.3-0.6,8.1-1.8c1.8-1.2,2.7-2.8,2.7-4.7c0-1.6-0.7-3.2-2.1-4.6
		c-1.4-1.5-5.2-3.4-11.3-5.9c-9.6-4-14.4-9.8-14.4-17.5c0-5.6,2.2-10,6.5-13.1c4.4-3.1,10.1-4.7,17.3-4.7c6,0,11.1,0.8,15.1,2.3
		v12.1c-4.1-2.8-9-4.1-14.5-4.1c-3.2,0-5.8,0.6-7.7,1.7c-1.9,1.2-2.9,2.7-2.9,4.7c0,1.6,0.7,3,2,4.3s4.6,3.1,9.8,5.3
		c6.1,2.6,10.3,5.3,12.6,8.2c2.3,2.9,3.4,6.3,3.4,10.2c0,5.8-2.1,10.2-6.3,13.3c-4.2,3-10.1,4.6-17.8,4.6c-7,0-12.8-1.1-17.3-3.4
		L527.3,502.3L527.3,502.3z"/>
	<path class="st31" d="M638.8,517.5h-13.1v-25h-26.2v25h-13.1V457h13.1v24.4h26.2V457h13.1V517.5z"/>
	<path class="st31" d="M656.6,488c0-9.5,2.8-17.2,8.4-23.1c5.6-6,13.1-8.9,22.3-8.9c8.8,0,15.9,2.9,21.2,8.6c5.4,5.8,8,13.2,8,22.2
		c0,9.4-2.8,17.1-8.4,23c-5.6,5.9-12.9,8.8-21.9,8.8c-8.8,0-16-2.8-21.5-8.5S656.6,497,656.6,488z M670.4,487.3
		c0,5.9,1.4,10.7,4.3,14.4c2.9,3.7,6.8,5.6,11.9,5.6c5.1,0,9.1-1.8,12-5.4s4.3-8.4,4.3-14.4c0-6.3-1.4-11.3-4.2-14.9
		c-2.8-3.7-6.7-5.5-11.8-5.5s-9.2,1.9-12.1,5.6C671.9,476.5,670.4,481.4,670.4,487.3z"/>
	<path class="st31" d="M747.4,496.4v21.1h-13.1V457h21.2c15.3,0,22.9,6.4,22.9,19.1c0,6.2-2.3,11.2-6.9,14.9
		c-4.6,3.7-10.4,5.5-17.3,5.4H747.4z M747.4,467v19.5h5.7c7.7,0,11.6-3.3,11.6-9.9c0-6.4-3.8-9.6-11.4-9.6H747.4z"/>
</g>
</svg>
