<?xml version="1.0" encoding="utf-8"?>
<!-- Generator: Adobe Illustrator 23.0.5, SVG Export Plug-In . SVG Version: 6.00 Build 0)  -->
<svg version="1.1" id="Слой_1" xmlns="http://www.w3.org/2000/svg" xmlns:xlink="http://www.w3.org/1999/xlink" x="0px" y="0px"
	 viewBox="0 0 457 526.5" style="enable-background:new 0 0 457 526.5;" xml:space="preserve">
<style type="text/css">
	.st0{fill:none;stroke:url(#SVGID_1_);stroke-width:69;stroke-linecap:round;stroke-linejoin:round;stroke-miterlimit:10;}
	.st1{fill:url(#SVGID_2_);}
</style>
<image style="display:none;overflow:visible;" width="580" height="290" xlink:href="EFC7A37.jpg"  transform="matrix(2.069 0 0 2.069 -34.5 -34.5)">
</image>
<g>
	<linearGradient id="SVGID_1_" gradientUnits="userSpaceOnUse" x1="66" y1="263.25" x2="457" y2="263.25">
		<stop  offset="0" style="stop-color:#39B9FF"/>
		<stop  offset="1" style="stop-color:#003BE4"/>
	</linearGradient>
	<polyline class="st0" points="100.5,133.5 100.5,34.5 422.5,34.5 422.5,491.5 101,492 101,382 	"/>
	<linearGradient id="SVGID_2_" gradientUnits="userSpaceOnUse" x1="0" y1="264.1484" x2="331.5" y2="264.1484">
		<stop  offset="0" style="stop-color:#39B9FF"/>
		<stop  offset="1" style="stop-color:#003BE4"/>
	</linearGradient>
	<path class="st1" d="M0,265.4L0,265.4C0,247.5,14.5,233,32.4,233H197c1.7,0,3-1.3,3-3v-90.6c0-2.7,3.3-4,5.1-2.1l126.4,129.2
		L206,391.1c-1.9,1.9-5.1,0.6-5.1-2.1l-1.8-89c0-1.6-1.4-2.9-3-2.9l-163.5,0.8C14.6,297.9,0,283.4,0,265.4z"/>
</g>
</svg>
