<?xml version="1.0" encoding="utf-8"?>
<!-- Generator: Adobe Illustrator 23.0.5, SVG Export Plug-In . SVG Version: 6.00 Build 0)  -->
<svg version="1.1" id="Слой_1" xmlns="http://www.w3.org/2000/svg" xmlns:xlink="http://www.w3.org/1999/xlink" x="0px" y="0px"
	 viewBox="0 0 58.6 53.7" style="enable-background:new 0 0 58.6 53.7;" xml:space="preserve">
<style type="text/css">
	.st0{fill:url(#SVGID_1_);}
	.st1{fill:none;stroke:#000000;stroke-miterlimit:10;}
</style>
<linearGradient id="SVGID_1_" gradientUnits="userSpaceOnUse" x1="0" y1="29.14" x2="58.6" y2="29.14" gradientTransform="matrix(1 0 0 -1 0 56)">
	<stop  offset="0" style="stop-color:#39B9FF"/>
	<stop  offset="1" style="stop-color:#003BE4"/>
</linearGradient>
<path class="st0" d="M58.6,15.3c0,5-0.6,8.3-3.6,12.2c-5.7,7.5-25.7,26.3-25.7,26.3S8.6,35.4,3.6,27.4C1,23.3,0,20.2,0,15.3
	C0,6.8,6.8,0,15.3,0c6.3,0,11.7,3.8,14,9.3C31.6,3.8,37,0,43.3,0C51.8,0,58.6,6.8,58.6,15.3z"/>
<path class="st1" d="M-66.3,30.9"/>
<path class="st1" d="M-26.2,30.9"/>
<path class="st1" d="M-26.2,30.9"/>
</svg>
