<?xml version="1.0" encoding="utf-8"?>
<!-- Generator: Adobe Illustrator 23.0.5, SVG Export Plug-In . SVG Version: 6.00 Build 0)  -->
<svg version="1.1" id="Слой_2" xmlns="http://www.w3.org/2000/svg" xmlns:xlink="http://www.w3.org/1999/xlink" x="0px" y="0px"
	 viewBox="0 0 438 436.9" style="enable-background:new 0 0 438 436.9;" xml:space="preserve">
<style type="text/css">
	.st0{fill:url(#SVGID_1_);}
	.st1{fill:url(#SVGID_2_);}
</style>
<g>
	<g>
		<linearGradient id="SVGID_1_" gradientUnits="userSpaceOnUse" x1="0" y1="177" x2="354" y2="177">
			<stop  offset="0" style="stop-color:#39B9FF"/>
			<stop  offset="1" style="stop-color:#003BE4"/>
		</linearGradient>
		<path class="st0" d="M177,66c29.6,0,57.5,11.5,78.5,32.5c21,21,32.5,48.8,32.5,78.5s-11.5,57.5-32.5,78.5
			c-21,21-48.8,32.5-78.5,32.5s-57.5-11.5-78.5-32.5c-21-21-32.5-48.8-32.5-78.5s11.5-57.5,32.5-78.5C119.5,77.5,147.4,66,177,66
			 M177,0C79.2,0,0,79.2,0,177s79.2,177,177,177s177-79.2,177-177S274.8,0,177,0L177,0z"/>
	</g>
	<g>
		<linearGradient id="SVGID_2_" gradientUnits="userSpaceOnUse" x1="287" y1="361.8433" x2="437.9515" y2="361.8433">
			<stop  offset="0" style="stop-color:#39B9FF"/>
			<stop  offset="1" style="stop-color:#003BE4"/>
		</linearGradient>
		<path class="st1" d="M307.2,286.8c-11.1,0-20.2,9-20.2,20.2v23.8c0,5.3,2.1,10.4,5.8,14.1l84.3,86c3.9,4,9.2,6.1,14.4,6.1
			c5,0,10-1.8,13.9-5.5l26.2-24.8c8.4-7.9,8.4-21.2,0.1-29.2l-87.2-84c-3.6-3.4-8.3-5.4-13.2-5.6l-23.3-0.9
			C307.7,286.8,307.4,286.8,307.2,286.8L307.2,286.8z"/>
	</g>
</g>
</svg>
