<?xml version="1.0" encoding="utf-8"?>
<!-- Generator: Adobe Illustrator 23.0.5, SVG Export Plug-In . SVG Version: 6.00 Build 0)  -->
<svg version="1.1" id="Слой_1" xmlns="http://www.w3.org/2000/svg" xmlns:xlink="http://www.w3.org/1999/xlink" x="0px" y="0px"
	 viewBox="0 0 1311 538.4" style="enable-background:new 0 0 1311 538.4;" xml:space="preserve">
<style type="text/css">
	.st0{opacity:0.9;}
	.st1{fill:url(#SVGID_1_);}
	.st2{fill:url(#SVGID_2_);}
	.st3{fill:url(#SVGID_3_);}
	.st4{fill:url(#SVGID_4_);}
	.st5{fill:url(#SVGID_5_);}
	.st6{fill:url(#SVGID_6_);}
	.st7{fill:url(#SVGID_7_);}
	.st8{fill:url(#SVGID_8_);}
	.st9{fill:url(#SVGID_9_);}
	.st10{fill:url(#SVGID_10_);}
	.st11{fill:url(#SVGID_11_);}
	.st12{fill:url(#SVGID_12_);}
	.st13{fill:url(#SVGID_13_);}
	.st14{fill:url(#SVGID_14_);}
	.st15{fill:url(#SVGID_15_);}
	.st16{fill:url(#SVGID_16_);}
	.st17{fill:url(#SVGID_17_);}
	.st18{fill:url(#SVGID_18_);}
	.st19{fill:url(#SVGID_19_);}
	.st20{fill:url(#SVGID_20_);}
	.st21{fill:url(#SVGID_21_);}
	.st22{fill:url(#SVGID_22_);}
	.st23{fill:url(#SVGID_23_);}
	.st24{fill:url(#SVGID_24_);}
	.st25{fill:url(#SVGID_25_);}
	.st26{fill:url(#SVGID_26_);}
	.st27{fill:url(#SVGID_27_);}
	.st28{fill:url(#SVGID_28_);}
	.st29{fill:url(#SVGID_29_);}
</style>
<g class="st0">
	<g>
		
			<linearGradient id="SVGID_1_" gradientUnits="userSpaceOnUse" x1="114.3" y1="786.53" x2="217.3" y2="786.53" gradientTransform="matrix(1 0 0 1 0 -734.58)">
			<stop  offset="0" style="stop-color:#00085D"/>
			<stop  offset="0.9958" style="stop-color:#005CAB"/>
			<stop  offset="1" style="stop-color:#005CAB"/>
			<stop  offset="1" style="stop-color:#056BFF"/>
			<stop  offset="1" style="stop-color:#0D4CFF"/>
		</linearGradient>
		<polygon class="st1" points="150.9,18.6 114.3,85.3 217.3,84.7 		"/>
		
			<linearGradient id="SVGID_2_" gradientUnits="userSpaceOnUse" x1="0.5" y1="1026.48" x2="77.9" y2="1026.48" gradientTransform="matrix(1 0 0 1 0 -734.58)">
			<stop  offset="0" style="stop-color:#00085D"/>
			<stop  offset="0.9958" style="stop-color:#005CAB"/>
			<stop  offset="1" style="stop-color:#005CAB"/>
			<stop  offset="1" style="stop-color:#056BFF"/>
			<stop  offset="1" style="stop-color:#0D4CFF"/>
		</linearGradient>
		<polygon class="st2" points="34.5,248.7 77.9,335.1 0.5,319.3 		"/>
		
			<linearGradient id="SVGID_3_" gradientUnits="userSpaceOnUse" x1="206.6" y1="810.63" x2="287.9" y2="810.63" gradientTransform="matrix(1 0 0 1 0 -734.58)">
			<stop  offset="0" style="stop-color:#00085D"/>
			<stop  offset="0.9958" style="stop-color:#005CAB"/>
			<stop  offset="1" style="stop-color:#005CAB"/>
			<stop  offset="1" style="stop-color:#056BFF"/>
			<stop  offset="1" style="stop-color:#0D4CFF"/>
		</linearGradient>
		<polygon class="st3" points="287.9,0 287.4,152.1 206.6,75.4 		"/>
		
			<linearGradient id="SVGID_4_" gradientUnits="userSpaceOnUse" x1="150.9" y1="822.93" x2="287.9" y2="822.93" gradientTransform="matrix(1 0 0 1 0 -734.58)">
			<stop  offset="0" style="stop-color:#39B9FF"/>
			<stop  offset="1" style="stop-color:#003BE4"/>
		</linearGradient>
		<polygon class="st4" points="150.9,18.6 287.9,76 287.9,158.1 		"/>
		
			<linearGradient id="SVGID_5_" gradientUnits="userSpaceOnUse" x1="80.3817" y1="1043.5037" x2="219.3412" y2="1180.0306" gradientTransform="matrix(1 0 0 1 0 -734.58)">
			<stop  offset="0" style="stop-color:#39B9FF"/>
			<stop  offset="1" style="stop-color:#003BE4"/>
		</linearGradient>
		<polygon class="st5" points="0.5,318.7 227.9,365.6 166,441 		"/>
		
			<linearGradient id="SVGID_6_" gradientUnits="userSpaceOnUse" x1="166" y1="1101.08" x2="288" y2="1101.08" gradientTransform="matrix(1 0 0 1 0 -734.58)">
			<stop  offset="0" style="stop-color:#000A75"/>
			<stop  offset="0.226" style="stop-color:#022AA2"/>
			<stop  offset="0.4617" style="stop-color:#0346CA"/>
			<stop  offset="0.6774" style="stop-color:#045AE7"/>
			<stop  offset="0.8639" style="stop-color:#0567F9"/>
			<stop  offset="1" style="stop-color:#056BFF"/>
			<stop  offset="1" style="stop-color:#5ACEFF"/>
		</linearGradient>
		<polygon class="st6" points="166,441 288,292 288,441 		"/>
		
			<linearGradient id="SVGID_7_" gradientUnits="userSpaceOnUse" x1="0" y1="903.33" x2="150.9" y2="903.33" gradientTransform="matrix(1 0 0 1 0 -734.58)">
			<stop  offset="0" style="stop-color:#39B9FF"/>
			<stop  offset="1" style="stop-color:#003BE4"/>
		</linearGradient>
		<polygon class="st7" points="0,133.2 0.5,318.9 150.9,18.6 		"/>
	</g>
	<g>
		
			<linearGradient id="SVGID_8_" gradientUnits="userSpaceOnUse" x1="313.0674" y1="1135.8817" x2="378.6439" y2="1200.3102" gradientTransform="matrix(1 0 0 1 0 -734.58)">
			<stop  offset="0" style="stop-color:#00085D"/>
			<stop  offset="0.9958" style="stop-color:#005CAB"/>
			<stop  offset="1" style="stop-color:#005CAB"/>
			<stop  offset="1" style="stop-color:#056BFF"/>
			<stop  offset="1" style="stop-color:#0D4CFF"/>
		</linearGradient>
		<path class="st8" d="M339.4,374.5l43.4,87l-70.8-9.9c-2.9-0.3-5-3.6-3.2-5.9L339.4,374.5z"/>
		
			<linearGradient id="SVGID_9_" gradientUnits="userSpaceOnUse" x1="346.3322" y1="1002.547" x2="416.8302" y2="1071.8109" gradientTransform="matrix(1 0 0 1 0 -734.58)">
			<stop  offset="0" style="stop-color:#39B9FF"/>
			<stop  offset="1" style="stop-color:#003BE4"/>
		</linearGradient>
		<path class="st9" d="M307,308c0,0,1.9,138.3,1,140l150.4-285.8c0.9-1.9-1.4-3.6-2.9-2.2L307,308z"/>
		
			<linearGradient id="SVGID_10_" gradientUnits="userSpaceOnUse" x1="339.9482" y1="1158.1245" x2="454.1134" y2="1270.2914" gradientTransform="matrix(1 0 0 1 0 -734.58)">
			<stop  offset="0" style="stop-color:#39B9FF"/>
			<stop  offset="1" style="stop-color:#003BE4"/>
		</linearGradient>
		<path class="st10" d="M436,462l16.3,74.6c0.3,1.3-1.2,2.3-2.3,1.6L312,452C311.2,451.5,436,462,436,462z"/>
		
			<linearGradient id="SVGID_11_" gradientUnits="userSpaceOnUse" x1="453.2544" y1="1117.7106" x2="529.5871" y2="1192.707" gradientTransform="matrix(1 0 0 1 0 -734.58)">
			<stop  offset="0" style="stop-color:#39B9FF"/>
			<stop  offset="1" style="stop-color:#003BE4"/>
		</linearGradient>
		<path class="st11" d="M436,462l15.2,73c0.2,0.9,0.5,2.9,0.8,2l79-233C531,303.9,436,462,436,462z"/>
		
			<linearGradient id="SVGID_12_" gradientUnits="userSpaceOnUse" x1="433.3035" y1="921.5215" x2="541.5346" y2="1027.8583" gradientTransform="matrix(1 0 0 1 0 -734.58)">
			<stop  offset="0" style="stop-color:#001F78"/>
			<stop  offset="0" style="stop-color:#00247D"/>
			<stop  offset="1" style="stop-color:#005CAB"/>
			<stop  offset="1" style="stop-color:#056BFF"/>
			<stop  offset="1" style="stop-color:#0083F5"/>
		</linearGradient>
		<path class="st12" d="M531,304c0.2,0.2-72-142-72-142c-0.5-1-1.7,0.4-2.3,1.4l-35.3,62.1L531,304z"/>
	</g>
	<g>
		
			<linearGradient id="SVGID_13_" gradientUnits="userSpaceOnUse" x1="522" y1="1030.23" x2="662" y2="1030.23" gradientTransform="matrix(1 0 0 1 0 -734.58)">
			<stop  offset="0" style="stop-color:#001F78"/>
			<stop  offset="0" style="stop-color:#00247D"/>
			<stop  offset="1" style="stop-color:#005CAB"/>
			<stop  offset="1" style="stop-color:#056BFF"/>
			<stop  offset="1" style="stop-color:#0083F5"/>
		</linearGradient>
		<polygon class="st13" points="522,441 662,301 590.1,150.3 		"/>
		
			<linearGradient id="SVGID_14_" gradientUnits="userSpaceOnUse" x1="570.5487" y1="1119.5306" x2="613.134" y2="1161.3702" gradientTransform="matrix(1 0 0 1 0 -734.58)">
			<stop  offset="0" style="stop-color:#00085D"/>
			<stop  offset="0.9958" style="stop-color:#005CAB"/>
			<stop  offset="1" style="stop-color:#005CAB"/>
			<stop  offset="1" style="stop-color:#056BFF"/>
			<stop  offset="1" style="stop-color:#0D4CFF"/>
		</linearGradient>
		<polygon class="st14" points="615.4,339.3 665,374 522,441 		"/>
		
			<linearGradient id="SVGID_15_" gradientUnits="userSpaceOnUse" x1="519.5251" y1="753.099" x2="733.2389" y2="963.0719" gradientTransform="matrix(1 0 0 1 0 -734.58)">
			<stop  offset="0" style="stop-color:#39B9FF"/>
			<stop  offset="1" style="stop-color:#003BE4"/>
		</linearGradient>
		<polygon class="st15" points="522,16 662,16 662,301 589,152.3 		"/>
		
			<linearGradient id="SVGID_16_" gradientUnits="userSpaceOnUse" x1="630.4728" y1="1065.1747" x2="777.0154" y2="1209.1522" gradientTransform="matrix(1 0 0 1 0 -734.58)">
			<stop  offset="0" style="stop-color:#39B9FF"/>
			<stop  offset="1" style="stop-color:#003BE4"/>
		</linearGradient>
		<polygon class="st16" points="810,441 810,290 522,441 		"/>
	</g>
	<g>
		
			<linearGradient id="SVGID_17_" gradientUnits="userSpaceOnUse" x1="829.9921" y1="1127.8744" x2="898.469" y2="1195.1526" gradientTransform="matrix(1 0 0 1 0 -734.58)">
			<stop  offset="0" style="stop-color:#00085D"/>
			<stop  offset="0.9958" style="stop-color:#005CAB"/>
			<stop  offset="1" style="stop-color:#005CAB"/>
			<stop  offset="1" style="stop-color:#056BFF"/>
			<stop  offset="1" style="stop-color:#0D4CFF"/>
		</linearGradient>
		<path class="st17" d="M857.3,365.5l43.5,92.7L830,446.6c-2.9-0.3-5-3.6-3.2-5.9L857.3,365.5z"/>
		
			<linearGradient id="SVGID_18_" gradientUnits="userSpaceOnUse" x1="951.032" y1="916.7978" x2="1059.2632" y2="1023.1346" gradientTransform="matrix(1 0 0 1 0 -734.58)">
			<stop  offset="0" style="stop-color:#001F78"/>
			<stop  offset="0" style="stop-color:#00247D"/>
			<stop  offset="1" style="stop-color:#005CAB"/>
			<stop  offset="1" style="stop-color:#056BFF"/>
			<stop  offset="1" style="stop-color:#0083F5"/>
		</linearGradient>
		<path class="st18" d="M1049,299c0.2,0.2-72-142-72-142c-0.5-1-1.7,0.4-2.3,1.4l-36.1,62.4L1049,299z"/>
		
			<linearGradient id="SVGID_19_" gradientUnits="userSpaceOnUse" x1="864.3323" y1="997.547" x2="934.8303" y2="1066.811" gradientTransform="matrix(1 0 0 1 0 -734.58)">
			<stop  offset="0" style="stop-color:#39B9FF"/>
			<stop  offset="1" style="stop-color:#003BE4"/>
		</linearGradient>
		<path class="st19" d="M825,303c0,0,1.9,138.3,1,140l150.4-285.8c0.9-1.9-1.4-3.6-2.9-2.2L825,303z"/>
		
			<linearGradient id="SVGID_20_" gradientUnits="userSpaceOnUse" x1="857.9482" y1="1153.1245" x2="972.1134" y2="1265.2915" gradientTransform="matrix(1 0 0 1 0 -734.58)">
			<stop  offset="0" style="stop-color:#39B9FF"/>
			<stop  offset="1" style="stop-color:#003BE4"/>
		</linearGradient>
		<path class="st20" d="M954,457l16.3,74.6c0.3,1.3-1.2,2.3-2.3,1.6L830,447C829.2,446.5,954,457,954,457z"/>
		
			<linearGradient id="SVGID_21_" gradientUnits="userSpaceOnUse" x1="971.2545" y1="1112.7106" x2="1047.5872" y2="1187.707" gradientTransform="matrix(1 0 0 1 0 -734.58)">
			<stop  offset="0" style="stop-color:#39B9FF"/>
			<stop  offset="1" style="stop-color:#003BE4"/>
		</linearGradient>
		<path class="st21" d="M954,457l15.2,73c0.2,0.9,0.5,2.9,0.8,2l79-233C1049,298.9,954,457,954,457z"/>
	</g>
	<g>
		
			<linearGradient id="SVGID_22_" gradientUnits="userSpaceOnUse" x1="1009.6873" y1="940.858" x2="1183.1603" y2="1111.2944" gradientTransform="matrix(1 0 0 1 0 -734.58)">
			<stop  offset="0" style="stop-color:#39B9FF"/>
			<stop  offset="1" style="stop-color:#003BE4"/>
		</linearGradient>
		<polygon class="st22" points="1120,94 1120,441 1024,441 		"/>
		
			<linearGradient id="SVGID_23_" gradientUnits="userSpaceOnUse" x1="965.3271" y1="806.1735" x2="1128.6694" y2="966.6567" gradientTransform="matrix(1 0 0 1 0 -734.58)">
			<stop  offset="0" style="stop-color:#001F78"/>
			<stop  offset="0" style="stop-color:#00247D"/>
			<stop  offset="1" style="stop-color:#005CAB"/>
			<stop  offset="1" style="stop-color:#056BFF"/>
			<stop  offset="1" style="stop-color:#0083F5"/>
		</linearGradient>
		<polygon class="st23" points="1017,19 1063.9,298 1120,94 		"/>
		
			<linearGradient id="SVGID_24_" gradientUnits="userSpaceOnUse" x1="1065.3015" y1="704.4178" x2="1183.6985" y2="820.7421" gradientTransform="matrix(1 0 0 1 0 -734.58)">
			<stop  offset="0" style="stop-color:#39B9FF"/>
			<stop  offset="1" style="stop-color:#003BE4"/>
		</linearGradient>
		<polygon class="st24" points="1017,19 1232,37 1120,94 		"/>
		
			<linearGradient id="SVGID_25_" gradientUnits="userSpaceOnUse" x1="1217.249" y1="786.5938" x2="1308.7693" y2="876.512" gradientTransform="matrix(1 0 0 1 0 -734.58)">
			<stop  offset="0" style="stop-color:#39B9FF"/>
			<stop  offset="1" style="stop-color:#003BE4"/>
		</linearGradient>
		<polygon class="st25" points="1292,159 1232,37 1287,87 		"/>
		
			<linearGradient id="SVGID_26_" gradientUnits="userSpaceOnUse" x1="1178.5883" y1="899.348" x2="1233.4117" y2="953.2119" gradientTransform="matrix(1 0 0 1 0 -734.58)">
			<stop  offset="0" style="stop-color:#39B9FF"/>
			<stop  offset="1" style="stop-color:#003BE4"/>
		</linearGradient>
		<polygon class="st26" points="1120,224.4 1292,159 1175,270 		"/>
		
			<linearGradient id="SVGID_27_" gradientUnits="userSpaceOnUse" x1="1101.4052" y1="977.5062" x2="1307.0745" y2="1179.5754" gradientTransform="matrix(1 0 0 1 0 -734.58)">
			<stop  offset="0" style="stop-color:#39B9FF"/>
			<stop  offset="1" style="stop-color:#003BE4"/>
		</linearGradient>
		<polygon class="st27" points="1237,441 1120,224 1311,384 1311,441 		"/>
		
			<linearGradient id="SVGID_28_" gradientUnits="userSpaceOnUse" x1="1207.2249" y1="776.6928" x2="1249.4572" y2="818.1859" gradientTransform="matrix(1 0 0 1 0 -734.58)">
			<stop  offset="0" style="stop-color:#001F78"/>
			<stop  offset="0" style="stop-color:#00247D"/>
			<stop  offset="1" style="stop-color:#005CAB"/>
			<stop  offset="1" style="stop-color:#056BFF"/>
			<stop  offset="1" style="stop-color:#0083F5"/>
		</linearGradient>
		<polygon class="st28" points="1192.5,57.1 1253,80 1232,37 		"/>
		
			<linearGradient id="SVGID_29_" gradientUnits="userSpaceOnUse" x1="1260.5129" y1="878.3522" x2="1284.1475" y2="901.5726" gradientTransform="matrix(1 0 0 1 0 -734.58)">
			<stop  offset="0" style="stop-color:#001F78"/>
			<stop  offset="0" style="stop-color:#00247D"/>
			<stop  offset="1" style="stop-color:#005CAB"/>
			<stop  offset="1" style="stop-color:#056BFF"/>
			<stop  offset="1" style="stop-color:#0083F5"/>
		</linearGradient>
		<polygon class="st29" points="1276.5,127.5 1257,172.3 1292,159 		"/>
	</g>
</g>
</svg>
