<?xml version="1.0" encoding="utf-8"?>
<!-- Generator: Adobe Illustrator 23.0.5, SVG Export Plug-In . SVG Version: 6.00 Build 0)  -->
<svg version="1.1" id="Слой_1" xmlns="http://www.w3.org/2000/svg" xmlns:xlink="http://www.w3.org/1999/xlink" x="0px" y="0px"
	 viewBox="0 0 438.9 323.5" style="enable-background:new 0 0 438.9 323.5;" xml:space="preserve">
<style type="text/css">
	.st0{fill:url(#SVGID_1_);}
	.st1{fill:url(#SVGID_2_);}
</style>
<g>
	<linearGradient id="SVGID_1_" gradientUnits="userSpaceOnUse" x1="0" y1="161.7747" x2="217" y2="161.7747">
		<stop  offset="0" style="stop-color:#39B9FF"/>
		<stop  offset="1" style="stop-color:#003BE4"/>
	</linearGradient>
	<path class="st0" d="M0,98.4v128.2c0,9.3,7.5,16.8,16.8,16.8H108l74,74c12.9,12.9,35,3.8,35-14.5V20.5C217,2.1,194.5-7,181.7,6.4
		L109,82.5l-92-0.8C7.6,81.5,0,89.1,0,98.4z"/>
	<linearGradient id="SVGID_2_" gradientUnits="userSpaceOnUse" x1="272.8096" y1="162.8233" x2="438.9211" y2="162.8233">
		<stop  offset="0" style="stop-color:#39B9FF"/>
		<stop  offset="1" style="stop-color:#003BE4"/>
	</linearGradient>
	<path class="st1" d="M314.5,164l-38.3,39.1c-4.5,4.6-4.5,12,0.1,16.6l22.3,22.3c4.7,4.7,12.2,4.6,16.8-0.1l37.2-38
		c1.4-1.3,3.6-1.3,4.9,0l38.3,37.5c4.6,4.5,11.9,4.5,16.5,0l22.3-21.8c4.6-4.5,4.8-12,0.3-16.6l-37.5-39c-1.3-1.4-1.3-3.6,0.1-4.9
		l37.8-36.2c4.8-4.6,4.9-12.2,0.2-16.9l-22.3-22.3c-4.5-4.5-11.9-4.6-16.5-0.2L358.4,120c-1.4,1.4-3.5,1.4-4.9,0.1l-38.2-36.6
		c-4.6-4.5-12-4.4-16.5,0.2l-22.3,22.3c-4.7,4.7-4.6,12.3,0.2,16.9l37.7,36.2C315.8,160.4,315.9,162.6,314.5,164z"/>
</g>
</svg>
