<?xml version="1.0" encoding="utf-8"?>
<!-- Generator: Adobe Illustrator 23.0.5, SVG Export Plug-In . SVG Version: 6.00 Build 0)  -->
<svg version="1.1" id="Слой_1" xmlns="http://www.w3.org/2000/svg" xmlns:xlink="http://www.w3.org/1999/xlink" x="0px" y="0px"
	 viewBox="0 0 1770.3 1534" style="enable-background:new 0 0 1770.3 1534;" xml:space="preserve">
<style type="text/css">
	.st0{fill:url(#SVGID_1_);}
	.st1{fill:url(#SVGID_2_);}
	.st2{fill:url(#SVGID_3_);}
</style>
<g>
	
		<linearGradient id="SVGID_1_" gradientUnits="userSpaceOnUse" x1="735.0601" y1="357.7731" x2="1045.1602" y2="667.8731" gradientTransform="matrix(1 0 0 1 0 -120)">
		<stop  offset="0" style="stop-color:#39B9FF"/>
		<stop  offset="1" style="stop-color:#003BE4"/>
	</linearGradient>
	<path class="st0" d="M1153.6,390.9V423c0,6.1-0.5,12.1-1.5,17.9h-524c-1-5.8-1.5-11.8-1.5-17.9v-32.1
		c0-59.6,48.3-107.9,107.9-107.9h311.1C1105.3,283,1153.6,331.3,1153.6,390.9z"/>
	
		<linearGradient id="SVGID_2_" gradientUnits="userSpaceOnUse" x1="440.7663" y1="521.6419" x2="1329.5165" y2="1410.3918" gradientTransform="matrix(1 0 0 1 0 -120)">
		<stop  offset="0" style="stop-color:#39B9FF"/>
		<stop  offset="1" style="stop-color:#003BE4"/>
	</linearGradient>
	<path class="st1" d="M1315.9,441H454.3c-70.5,0-127.7,57.1-127.7,127.6v554.7c0,70.5,57.2,127.7,127.7,127.7H1316
		c70.5,0,127.7-57.2,127.7-127.7V568.6C1443.6,498.1,1386.4,441,1315.9,441z M885.6,1114c-148,0-268-120-268-268s120-268,268-268
		s268,120,268,268S1033.6,1114,885.6,1114z"/>
	
		<linearGradient id="SVGID_3_" gradientUnits="userSpaceOnUse" x1="746.5203" y1="827.4271" x2="1023.7062" y2="1104.6129" gradientTransform="matrix(1 0 0 1 0 -120)">
		<stop  offset="0" style="stop-color:#39B9FF"/>
		<stop  offset="1" style="stop-color:#003BE4"/>
	</linearGradient>
	<circle class="st2" cx="885.1" cy="846" r="196"/>
</g>
</svg>
